<?xml version="1.0" encoding="UTF-8" standalone="no"?>
<!DOCTYPE svg PUBLIC "-//W3C//DTD SVG 1.1//EN" "http://www.w3.org/Graphics/SVG/1.1/DTD/svg11.dtd">
<svg width="100%" height="100%" viewBox="0 0 160 159" version="1.1" xmlns="http://www.w3.org/2000/svg" xmlns:xlink="http://www.w3.org/1999/xlink" xml:space="preserve" xmlns:serif="http://www.serif.com/" style="fill-rule:evenodd;clip-rule:evenodd;stroke-linejoin:round;stroke-miterlimit:2;">
    <g transform="matrix(1,0,0,1,-120.353,-97.3492)">
        <g>
            <g transform="matrix(1.24614,0,0,1.24614,-20.3274,-18.2354)">
                <path d="M184.684,185.922C185.52,188.641 188.06,190.606 191.056,190.606L230.887,190.606C229.388,193.004 227.734,195.295 225.927,197.457L199.363,197.457C197.422,197.457 195.846,199.033 195.846,200.974C195.846,202.915 197.422,204.491 199.363,204.491L219.114,204.491C209.722,212.869 197.821,218.483 184.684,220.086L184.684,185.922Z" style="fill:rgb(0,152,255);"/>
            </g>
            <g transform="matrix(1.24614,0,0,1.24614,-20.3274,-18.2354)">
                <path d="M168.931,211.654L168.931,220.077C160.023,219.002 151.686,216.063 144.318,211.654L168.931,211.654Z" style="fill:rgb(0,152,255);"/>
            </g>
            <g transform="matrix(1.24614,0,0,1.24614,-20.3274,-18.2354)">
                <path d="M168.931,173.574L168.931,205.851L136.08,205.851C126.563,198.017 119.387,187.459 115.695,175.384L138.909,175.384C141.856,175.384 144.249,172.991 144.249,170.044C144.249,167.097 141.856,164.704 138.909,164.704L113.453,164.704C113.063,162.076 112.892,159.392 112.892,156.669C112.892,141.525 118.171,127.604 127.014,116.665L149.112,116.665C151.114,116.665 152.74,115.04 152.74,113.037C152.74,111.035 151.114,109.409 149.112,109.409L133.903,109.409C145.204,99.042 160.277,92.754 176.807,92.754C194.131,92.754 209.854,99.661 221.349,110.898L199.766,110.898C192.986,110.898 187.482,116.402 187.482,123.181C187.482,129.96 192.986,135.464 199.766,135.464L237.038,135.464C239.448,142.084 240.722,149.229 240.722,156.669C240.722,163.84 239.538,170.737 237.299,177.161L191.056,177.161C188.06,177.161 185.52,179.125 184.684,181.844L184.684,173.574C191.059,170.618 195.476,164.155 195.476,156.669C195.476,146.365 187.111,138 176.807,138C168.808,138 161.976,143.042 159.342,150.128C158.69,149.698 157.909,149.452 157.071,149.452C154.753,149.452 152.872,151.333 152.872,153.651C152.872,155.968 154.753,157.85 157.071,157.85C157.46,157.85 157.837,157.797 158.19,157.679C158.551,164.733 162.845,170.752 168.931,173.574Z" style="fill:rgb(0,152,255);"/>
            </g>
            <g transform="matrix(2.01502,0,0,1.14956,-203.004,-77.413)">
                <path d="M227.546,171.694C231.875,179.048 235.242,188.128 237.249,198.325L214.198,198.325C210.006,198.325 206.602,192.358 206.602,185.009C206.602,177.66 210.006,171.694 214.198,171.694L227.546,171.694Z" style="fill:rgb(0,116,255);"/>
            </g>
            <g transform="matrix(2.01502,0,0,2.01502,-221.973,-236.183)">
                <circle cx="188.135" cy="192.61" r="7.258" style="fill:rgb(0,116,255);"/>
            </g>
            <g transform="matrix(1.34941,0,0,1.34941,-11.7702,-78.7058)">
                <circle cx="188.135" cy="192.61" r="7.258" style="fill:rgb(0,116,255);"/>
            </g>
            <g transform="matrix(0.857237,0,0,0.857237,19.9525,-24.8127)">
                <circle cx="188.135" cy="192.61" r="7.258" style="fill:rgb(0,116,255);"/>
            </g>
            <g transform="matrix(0.482492,0,0,0.482492,162.691,99.9015)">
                <circle cx="188.135" cy="192.61" r="7.258" style="fill:rgb(0,116,255);"/>
            </g>
            <g transform="matrix(0.768436,0,0,0.768436,79.1931,-35.8638)">
                <circle cx="188.135" cy="192.61" r="7.258" style="fill:rgb(0,116,255);"/>
            </g>
            <g transform="matrix(0.720911,0,0,0.720911,39.7773,34.3809)">
                <path d="M190.069,199.574C189.458,199.776 188.807,199.868 188.135,199.868C184.129,199.868 180.877,196.616 180.877,192.61C180.877,188.604 184.129,185.352 188.135,185.352C189.583,185.352 190.934,185.778 192.06,186.521C190.703,190.029 189.98,193.844 189.98,197.827L190.069,199.574Z" style="fill:rgb(0,116,255);"/>
            </g>
            <g transform="matrix(1.18091,0,0,1.18091,-50.1774,-16.1851)">
                <circle cx="188.135" cy="192.61" r="7.258" style="fill:rgb(0,116,255);"/>
            </g>
            <g transform="matrix(2.01502,0,0,2.01502,-203.004,-226.007)">
                <path d="M160.82,204.969L176.563,204.969C178.385,204.969 179.865,206.449 179.865,208.272C179.865,210.095 178.385,211.574 176.563,211.574L162.207,211.574L161.277,207.962L160.82,204.969Z" style="fill:rgb(0,116,255);"/>
            </g>
            <g transform="matrix(4.05923,0,0,2.53654,-394.694,-317.38)">
                <path d="M164.583,207.119C164.307,208.034 164.032,208.949 163.756,209.864L163.106,211.574L150.879,211.574C149.74,211.574 148.815,210.095 148.815,208.272C148.815,206.449 149.74,204.969 150.879,204.969L165.075,204.969L164.583,207.119Z" style="fill:rgb(0,116,255);"/>
            </g>
            <g transform="matrix(4.05923,0,0,1.36908,-560.104,-162.516)">
                <path d="M174.082,204.969L178.751,204.969C179.366,204.969 179.865,206.449 179.865,208.272C179.865,210.095 179.366,211.574 178.751,211.574L171.967,211.574C172.61,209.2 173.313,206.978 174.082,204.969Z" style="fill:rgb(0,116,255);"/>
            </g>
            <g transform="matrix(4.05923,0,0,1.09476,-525.213,13.8929)">
                <path d="M166.155,204.969L176.24,204.969L176.24,211.574L168.684,211.574L168.153,210.429C167.731,209.346 167.309,208.262 166.887,207.179L166.155,204.969Z" style="fill:rgb(0,116,255);"/>
            </g>
            <g transform="matrix(4.05923,0,0,1.32705,-380.349,-44.1802)">
                <path d="M157.356,207.416C157.072,208.302 156.788,209.187 156.504,210.072L155.958,211.574L149.895,211.574C149.299,211.574 148.815,210.095 148.815,208.272C148.815,206.449 149.299,204.969 149.895,204.969L158.049,204.969L157.356,207.416Z" style="fill:rgb(0,116,255);"/>
            </g>
        </g>
    </g>
</svg>
